<?xml version="1.0" encoding="utf-8"?>
<svg version="1.1" xmlns:xlink="http://www.w3.org/1999/xlink" width="57px" height="57px" xmlns="http://www.w3.org/2000/svg">
  <g transform="matrix(1 0 0 1 -935 -1050 )">
    <path d="M 963.5 1050  C 979.46 1050  992 1062.54  992 1078.5  C 992 1094.46  979.46 1107  963.5 1107  C 947.54 1107  935 1094.46  935 1078.5  C 935 1062.54  947.54 1050  963.5 1050  Z " fill-rule="nonzero" fill="#ffffff" stroke="none" />
    <path d="M 963.5 1050.5  C 979.18 1050.5  991.5 1062.82  991.5 1078.5  C 991.5 1094.18  979.18 1106.5  963.5 1106.5  C 947.82 1106.5  935.5 1094.18  935.5 1078.5  C 935.5 1062.82  947.82 1050.5  963.5 1050.5  Z " stroke-width="1" stroke="#797979" fill="none" />
  </g>
</svg>